<svg xmlns="http://www.w3.org/2000/svg" height="143.152" width="191.707"><path d="M18.332 124.997c2.666-5.818 4.57-12.622 8.67-18.316 23.541-32.708 29.95-48.167 65.27-48.167 27.289 0 61.933 3.081 77.984 4.278 7.655-1 7.96 9.869 7.96 9.869l11.613 49.969s2.644 9.405-6.614 10.8c-42.7 13.248-129.045 7.8-156.937 2.125-7.584-1.54-9.202-7.814-7.946-10.558z" fill="#e6e7e8" stroke="#3e4147" stroke-linecap="round" stroke-linejoin="round" stroke-width="3"/><path d="M57.131 83.565c-9.488 10.081-20.215 29.7-25.8 40.563.412-.026.825-.042 1.24-.042h7.621a20.278 20.278 0 0111.228 3.466c12.119-29.225 26.27-53.6 40.423-57.535-14.39-1.693-21.164-.846-34.712 13.548z" fill="#fff"/><g stroke="#3e4147" stroke-linecap="round" stroke-linejoin="round" stroke-width="3" transform="translate(-8192.284 -2133.559)"><path d="M8210.616 2258.556c2.666-5.818 4.57-12.622 8.67-18.316 23.541-32.708 29.95-48.167 65.27-48.167 27.289 0 61.933 3.081 77.984 4.278 7.655-1 7.96 9.869 7.96 9.869l11.613 49.969s2.644 9.405-6.614 10.8c-42.7 13.248-129.045 7.8-156.937 2.125-7.584-1.54-9.202-7.814-7.946-10.558z" fill="none"/><path d="M8375.5 2266.992c9.258-1.4 6.614-10.8 6.614-10.8l-1.327-5.71c-60.466 11.912-136.394 6.757-165.572-2.923-1.475 3.763-2.977 7.462-4.6 11-1.257 2.743.36 9.018 7.944 10.561 27.895 5.673 114.241 11.119 156.941-2.128z" fill="#85c3e9"/><circle cx="8299.1" cy="2227.905" fill="#85c3e9" r="8.566"/><circle cx="8324.797" cy="2227.905" fill="#85c3e9" r="8.566"/><path d="M8371.155 2209.036c-.655-2.816-6.1-29.1-8.669-36.809s-6.853-12.849-14.562-13.705-55.677 0-62.53-.857-14.561 10.279-5.139 13.705 51.395 3.427 55.677 4.283-4.214 18.6-4.214 18.6c-2.638 8.811 36.969 19.898 39.437 14.783z" fill="#85c3e9"/><path d="M8351.89 2159.437l11.246-9.506s3.839-1.722 5.141 3.427l-7.71 14.257s-6.424-2.123-8.677-8.178z" fill="#e6e7e8"/><path d="M8243.494 2135.668c9.469 11.709-20.772 19.819-10.243 33.406 3.471 4.479 9.132 6.417 7.576 13.292-1.639 7.24-9.668 10.508-3.575 18.212M8216.032 2199.746c-7.921-7.373 5.812-15.01 2.24-23.658-2-4.85-6.941-7.425-8.134-12.919-1.936-8.923 4.812-13.037 9.638-19.18M8194.395 2174.364c6.58 5.319 4.81 12.267 1.747 19.405-4.185 9.752-.366 25.1 11.152 28.446" fill="none"/></g></svg>
